<svg id="Layer_1" enable-background="new 0 0 512 512" height="512" viewBox="0 0 512 512" width="512" xmlns="http://www.w3.org/2000/svg"><path d="m256 0 11.25 76-11.25 90c-44.399 0-81.599 32.399-88.5 75-1.199 4.799-1.5 9.899-1.5 15h-140.118l-25.582-15c7.801-133.801 120.099-241 255.7-241z" fill="#0082ff"/><path d="m256 361c-57.891 0-105-47.109-105-105s47.109-105 105-105 105 47.109 105 105-47.109 105-105 105zm0-180c-41.353 0-75 33.647-75 75s33.647 75 75 75 75-33.647 75-75-33.647-75-75-75z"/><path d="m494.3 256 17.4 15c-.6 10.2-2.8 20.1-4.6 30l-14.1 17.7 6.9 12.3c-3.3 10.5-7.2 20.4-11.7 30l-24 15 8.1 15c-6.6 10.5-13.8 20.7-21.9 30-1.8-.6-33.9 12-33.9 12l3.9 18c-44.4 37.5-102 61-164.4 61s-120-23.5-164.4-61l3.9-16.8-33.9-13.2c-8.1-9.3-15.3-19.5-21.9-30l9.9-16.8-25.8-13.2c-4.5-9.6-8.4-19.5-11.7-30l18.3-11.4-25.2-18.6c-1.8-9.9-4-19.8-4.3-30l24.6-15h140.5c0 49.2 39.9 90 90 90h.3c49.5-.3 89.7-40.2 89.7-90 0-50.1-41.1-90-90-90v-166c62.4 0 120 23.5 164.4 61v15l30 15c8.1 9.3 15.3 19.5 21.9 30l.3 19.2 15.6 10.8c4.5 9.6 8.4 19.5 11.7 30l-11.7 18.6 18.9 11.4c1.8 9.9 4 19.8 4.6 30z" fill="#ff637b"/><path d="m494.3 256 17.4 15c-.6 10.2-2.8 20.1-4.6 30l-14.1 17.7 6.9 12.3c-3.3 10.5-7.2 20.4-11.7 30l-24 15 8.1 15c-6.6 10.5-13.8 20.7-21.9 30-1.8-.6-33.9 12-33.9 12l3.9 18c-44.4 37.5-102 61-164.4 61v-166h.3c49.5-.3 89.7-40.2 89.7-90 0-50.1-41.1-90-90-90v-166c62.4 0 120 23.5 164.4 61v15l30 15c8.1 9.3 15.3 19.5 21.9 30l.3 19.2 15.6 10.8c4.5 9.6 8.4 19.5 11.7 30l-11.7 18.6 18.9 11.4c1.8 9.9 4 19.8 4.6 30z" fill="#e63950"/><path d="m450.399 91h-194.399v-30h164.399c10.802 9.3 20.7 19.2 30 30z" fill="#dce1eb"/><path d="m488.2 151h-232.2v-30h216.301c5.998 9.6 11.4 19.499 15.899 30z" fill="#dce1eb"/><path d="m507.1 211h-173.101c-7.2-12.001-16.8-22.2-28.2-30h194.101c2.699 9.6 5.4 19.799 7.2 30z" fill="#dce1eb"/><path d="m512 256c0 5.099 0 9.899-.3 15h-167.2c1.199-4.801 1.5-9.901 1.5-15 0-5.101-.3-10.201-1.5-15h167.2c.3 5.099.3 9.899.3 15z" fill="#dce1eb"/><path d="m177.4 241v30h-176.499c-.601-5.101-.901-9.901-.901-15 0-5.101 0-9.901.3-15z" fill="#f2f6fc"/><path d="m507.1 301c-1.8 10.199-4.501 20.4-7.2 30h-194.101c11.4-7.8 21-18.001 28.2-30z" fill="#dce1eb"/><g fill="#f2f6fc"><path d="m206.201 331h-194.101c-2.699-9.6-5.4-19.801-6.899-30h172.8c7.199 11.999 16.8 22.2 28.2 30z"/><path d="m488.2 361c-4.499 10.499-9.901 20.4-15.899 30h-432.602c-5.999-9.6-11.4-19.501-15.899-30z"/><path d="m450.399 421c-9.3 10.8-19.199 20.7-30 30h-328.798c-10.801-9.3-20.7-19.2-30-30z"/><path d="m61.002 181.002h29.997v29.997h-29.997z" transform="matrix(.707 .707 -.707 .707 160.853 3.667)"/><path d="m121.002 181.002h29.997v29.997h-29.997z" transform="matrix(.707 .707 -.707 .707 178.426 -38.76)"/><path d="m181.002 61.002h29.997v29.997h-29.997z" transform="matrix(.707 .707 -.707 .707 111.147 -116.333)"/><path d="m106.002 121.002h29.997v29.997h-29.997z" transform="matrix(.707 .707 -.707 .707 131.607 -45.726)"/><path d="m166.002 121.002h29.997v29.997h-29.997z" transform="matrix(.707 .707 -.707 .707 149.18 -88.153)"/></g><path d="m256 151c-57.9 0-105 47.1-105 105s47.1 105 105 105h.3c57.9-.3 104.7-47.1 104.7-105s-47.1-105-105-105zm.3 150h-.3c-24.9 0-45-20.1-45-45s20.1-45 45-45h.3c24.9.3 44.7 20.1 44.7 45s-19.8 44.7-44.7 45z" fill="#3e5959"/><path d="m361 256c0 57.9-46.8 104.7-104.7 105h-.3v-60h.3c24.9-.3 44.7-20.1 44.7-45s-19.8-44.7-44.7-45h-.3v-60c57.9 0 105 47.1 105 105z" fill="#384949"/><path d="m256.3 421h194.099c-9.3 10.8-19.199 20.7-30 30h-164.099z" fill="#dce1eb"/><path d="m488.2 361c-4.499 10.499-9.901 20.4-15.899 30h-216v-30z" fill="#dce1eb"/></svg>